<svg xmlns="http://www.w3.org/2000/svg" xmlns:xlink="http://www.w3.org/1999/xlink" width="1080" zoomAndPan="magnify" viewBox="0 0 810 374.999991" height="500" preserveAspectRatio="xMidYMid meet" version="1.0"><defs><clipPath id="897bffd035"><path d="M 240 175 L 550 175 L 550 366.867188 L 240 366.867188 Z M 240 175 " clip-rule="nonzero"/></clipPath><clipPath id="0e7fa9a89c"><path d="M 196 8.367188 L 420 8.367188 L 420 106 L 196 106 Z M 196 8.367188 " clip-rule="nonzero"/></clipPath></defs><path fill="#ff6708" d="M 272.175781 221.179688 C 273.964844 233.859375 264.964844 215.097656 262.121094 214.203125 C 261.972656 221.078125 262.898438 228.101562 260.652344 234.710938 L 235.175781 234.710938 C 234.167969 234.710938 232.304688 229.257812 230.707031 228.890625 C 229.753906 228.671875 221.734375 233.757812 219.082031 234.621094 C 198.3125 241.394531 173.128906 233.992188 164.566406 212.722656 C 148.855469 235.632812 120.722656 242.554688 94.984375 233.699219 C 89.617188 231.851562 82.214844 224.550781 78.007812 224.390625 L 74.375 230.503906 C 72.980469 232.847656 70.695312 234.550781 68.042969 235.152344 C 52.8125 238.523438 37.464844 236.851562 29.871094 227.453125 C 19.828125 215.023438 22.847656 180.078125 23.4375 174.1875 C 23.480469 173.761719 23.113281 173.410156 22.703125 173.46875 C 20.710938 173.746094 15.007812 173.175781 12.96875 172.96875 C 12.515625 172.925781 12.164062 172.574219 12.132812 172.117188 C 11.839844 168.585938 12.222656 155.703125 12.222656 152.625 C 12.222656 150.484375 23.390625 151.800781 23.390625 151.171875 L 23.390625 127.46875 C 23.390625 124.347656 53.296875 124.316406 53.367188 126.808594 C 53.457031 130.019531 53.425781 146.640625 53.175781 151.113281 C 53.601562 151.480469 70.386719 151.023438 72.777344 151.800781 C 73.054688 153.882812 72.804688 168.5 73.140625 168.585938 C 95.058594 140.894531 145.042969 142.597656 163.847656 173.160156 C 173.742188 153.867188 191.832031 147.609375 212.824219 150.410156 C 219.535156 151.304688 225.78125 153.53125 231.527344 155.570312 L 232.085938 108.882812 C 232.363281 107.386719 234.679688 107.195312 235.164062 107.195312 L 259.90625 107.195312 C 261.109375 107.195312 262.089844 108.191406 262.089844 109.394531 L 262.089844 171.695312 C 281.527344 144.5625 321.558594 142.054688 346.832031 162.882812 C 349.953125 165.449219 350.789062 171.402344 356.695312 170.226562 L 356.695312 108.664062 C 356.710938 106.859375 358.339844 107.195312 358.820312 107.195312 L 386.25 107.195312 C 386.804688 107.195312 387.273438 107.664062 387.273438 108.222656 L 387.273438 157.035156 C 394.074219 156.859375 399.222656 151.171875 405.816406 150.058594 C 425.078125 146.789062 441.246094 152.210938 447.667969 171.695312 C 467.777344 144.253906 510.140625 141.4375 534.3125 165.066406 C 537.230469 167.910156 538.917969 174.070312 543.695312 173.21875 C 544.472656 173.085938 549.015625 163.132812 552.476562 159.980469 C 562.605469 150.746094 579.683594 147.976562 592.875 150.074219 C 598.003906 150.894531 607.167969 157.152344 609.308594 157.109375 C 612.824219 157.019531 611.476562 152.960938 615.007812 152.535156 C 618.21875 152.152344 641.996094 150.9375 641.996094 154.851562 L 641.996094 190.765625 C 648.0625 190.574219 650.1875 185.105469 656.59375 182.746094 C 672.25 176.957031 684.5625 180.914062 700.21875 183.433594 C 698.664062 168.644531 679.039062 168.894531 667.605469 170.375 C 662.398438 171.046875 651.976562 178.070312 650.746094 170.976562 C 647.742188 153.648438 654.835938 151.261719 670.402344 149.734375 C 688.476562 147.976562 715.84375 149.425781 725.605469 167.414062 C 732.511719 180.136719 727.5 190.441406 729.417969 203.152344 C 729.710938 205.085938 732.160156 211.066406 735.164062 209.820312 L 735.164062 154.851562 C 735.164062 153.648438 736.148438 152.652344 737.347656 152.652344 L 764.277344 152.652344 C 764.585938 152.652344 763.691406 157.519531 766.605469 158.457031 C 769.523438 159.394531 789.226562 146.816406 796.394531 151.832031 C 798.8125 153.53125 798.3125 171.195312 795.984375 172.867188 C 792.742188 175.210938 765.726562 176.207031 765.726562 187.101562 L 765.726562 232.542969 C 765.726562 233.757812 764.746094 234.738281 763.542969 234.738281 L 727.160156 234.738281 C 724.726562 234.738281 714.597656 231.046875 711.710938 229.726562 C 708.824219 228.40625 709.203125 225.636719 706.917969 225.886719 C 702.199219 226.398438 696.453125 232.101562 691.46875 233.964844 C 678.582031 238.769531 666.125 238.082031 653.5625 232.613281 L 642.023438 221.53125 C 641.6875 246.628906 635.664062 264.964844 609.6875 271.796875 C 591.773438 276.515625 575.269531 273.847656 557.589844 269.890625 L 557.589844 249.371094 C 578.875 251.144531 612.253906 262.078125 611.433594 228.847656 C 586.851562 244.457031 556.640625 238.769531 542.289062 212.738281 L 531.339844 225.109375 C 519.390625 234.84375 496.671875 241.101562 481.910156 236.191406 C 478.140625 234.945312 471.925781 232.964844 468.804688 231.792969 C 459.453125 228.277344 454.660156 223.144531 448.445312 215.667969 L 448.445312 233.257812 C 442.273438 231.75 431.515625 230.285156 426.601562 234.726562 C 416.882812 237.203125 418.730469 229.683594 417.867188 228.863281 C 417.808594 223.953125 418 219.320312 417.867188 217.136719 C 417.339844 208.808594 419.757812 181.238281 415.976562 176.515625 C 409.980469 169.039062 390.835938 173.847656 387.949219 183.347656 C 385.046875 192.917969 388.738281 209.628906 387.304688 220.066406 C 387.671875 224.1875 387.523438 226.28125 387.789062 230.972656 C 387.90625 233.140625 386.21875 234.988281 384.050781 235.019531 C 375.898438 235.136719 359.832031 236.425781 358.089844 234.09375 C 356.960938 232.570312 357.457031 212.664062 353.046875 216.359375 C 352.109375 218.160156 351.316406 220.214844 350.042969 221.5625 C 339.253906 232.863281 319.859375 238.785156 304.320312 237.6875 C 303.179688 237.597656 297.316406 236.542969 295.585938 236.21875 C 290.9375 235.339844 285.632812 233.171875 281.03125 231.824219 C 281.03125 220.917969 279.796875 208.691406 289.03125 201.070312 C 296.1875 213.941406 301.667969 216.019531 315.960938 211.300781 C 327.304688 207.546875 329.140625 198.621094 327.511719 187.203125 C 325.328125 171.914062 301.875 168.042969 292.652344 179.742188 C 289.867188 183.273438 290.644531 186.277344 289.765625 187.832031 C 282.097656 201.449219 273.6875 199.78125 272.191406 221.210938 L 272.191406 221.179688 Z M 53.953125 173.144531 L 53.953125 207.59375 C 53.953125 213.015625 67.894531 212.871094 69.359375 210.742188 C 69.859375 210.039062 67.335938 202.785156 66.984375 198.855469 C 66.605469 194.621094 66.796875 188.550781 67.160156 184.257812 C 67.394531 181.53125 70.34375 174.421875 70.371094 172.984375 C 70.402344 171.988281 57.3125 173.613281 53.941406 173.128906 L 53.953125 173.128906 Z M 132.070312 207.828125 C 134.765625 204.953125 136.804688 198.269531 136.980469 194.328125 C 138.328125 164.027344 92.109375 166.402344 97.988281 198.460938 C 100.714844 213.324219 122.453125 218.089844 132.070312 207.828125 Z M 228.128906 179.519531 C 218.203125 169.15625 198.75 170.507812 193.003906 184.914062 C 183.753906 208.089844 210.464844 222.867188 227.085938 207.503906 C 233.273438 201.800781 233.800781 185.429688 228.140625 179.519531 Z M 507.636719 209.335938 C 519.289062 198.621094 514.539062 174.917969 497.183594 173.101562 C 468.804688 170.140625 467.382812 209.9375 489.839844 212.753906 C 494.882812 213.382812 503.75 212.898438 507.636719 209.335938 Z M 606.566406 207.828125 C 611.445312 202.945312 612.253906 195.117188 611.445312 188.492188 C 608.882812 167.355469 568.378906 165.714844 570.621094 195.820312 C 571.957031 213.675781 594.984375 219.378906 606.566406 207.828125 Z M 671.574219 202.859375 C 664.464844 225.125 697.433594 219.757812 700 210.203125 C 703.691406 196.4375 673.847656 195.761719 671.574219 202.859375 Z M 671.574219 202.859375 " fill-opacity="1" fill-rule="nonzero"/><g clip-path="url(#897bffd035)"><path fill="#203a63" d="M 496.214844 348.902344 C 512.738281 349.324219 516.296875 340.558594 521.019531 328.804688 C 522.574219 324.933594 528.789062 311.125 528.789062 311.125 L 531.996094 304.074219 L 533.742188 299.53125 L 535.925781 293.683594 C 536.074219 292.847656 537.566406 289.855469 535.074219 287.304688 C 533.933594 286.148438 533.726562 286.703125 529.507812 286.101562 C 528.480469 285.957031 526.089844 285.898438 525.109375 285.136719 C 520.609375 281.660156 521.53125 284.417969 519.789062 288.800781 C 519.082031 290.574219 516.445312 297.40625 513.558594 298.253906 C 511.621094 298.828125 510.949219 299.164062 505.539062 298.152344 C 490.148438 295.308594 484.445312 273.777344 491.378906 260.992188 C 491.410156 260.949219 491.378906 260.90625 491.320312 260.90625 C 484.828125 261.652344 481.191406 258.003906 477.6875 257.886719 C 477 257.871094 477.496094 263.835938 472.703125 266.535156 C 464.570312 271.121094 460.832031 267.046875 458.425781 274.625 C 457.664062 277.042969 454.5 284.535156 453.121094 286.808594 C 448.941406 293.753906 438.828125 294.589844 431.367188 293.066406 C 430.136719 292.816406 427.058594 287.671875 426.089844 286.878906 C 423.40625 284.710938 425.621094 286.292969 420.886719 292.304688 C 420.316406 293.035156 415.183594 297.832031 414.863281 298.050781 C 412.882812 299.398438 407.855469 299.722656 405.832031 298.050781 C 405.15625 297.476562 400.773438 292.847656 400.394531 292.097656 C 397.566406 286.660156 397.902344 280.871094 395.542969 281.265625 C 394.839844 281.382812 394.472656 281.851562 394.441406 281.882812 C 392.785156 283.773438 392.875 285.179688 389.09375 289.710938 C 388.695312 290.179688 386.847656 291.527344 385.882812 291.964844 C 384.296875 292.699219 384.285156 292.65625 381.644531 293.242188 C 372.335938 295.308594 364.378906 293.859375 360.480469 284.492188 C 360.449219 284.417969 360.363281 284.402344 360.304688 284.460938 C 355.480469 290.53125 355.070312 294.632812 345.777344 293.871094 C 339.957031 293.402344 339.105469 289.605469 338.84375 288.757812 C 337.523438 284.652344 335.28125 291.21875 333.566406 294.152344 C 332.863281 295.339844 332.921875 295.367188 332.203125 296.65625 C 331.453125 298.007812 329.914062 299.457031 329.402344 299.984375 C 328.890625 300.511719 328.140625 301.464844 327.1875 302.417969 C 327.1875 302.417969 322.453125 306.007812 318.671875 307.738281 C 316.238281 308.851562 305.789062 307.417969 303.765625 305.964844 C 301.902344 304.632812 298.707031 300.792969 295.410156 299.3125 C 294.5 298.898438 293.476562 299.589844 293.445312 300.585938 C 293.0625 313.164062 293.0625 311.625 293.445312 324.363281 C 293.535156 327.117188 293.328125 338.566406 293.078125 339.769531 C 292.625 341.921875 292.257812 346.011719 291.773438 348.167969 C 291.554688 349.164062 290.558594 352.097656 290.292969 352.566406 C 287.433594 357.417969 285.441406 359.617188 281.425781 363.03125 C 280.429688 363.867188 280.238281 364.101562 278.363281 365.1875 C 277.894531 365.449219 276.015625 366.152344 275.035156 366.386719 C 273.539062 366.753906 263.835938 366.667969 263.25 366.316406 C 260.742188 364.835938 256.34375 360.992188 255.816406 360.289062 C 255.480469 359.851562 253.0625 354.882812 252.796875 353.679688 C 249.953125 340.546875 255.566406 327.042969 261.066406 315.480469 C 261.855469 313.808594 263.851562 310.304688 264.113281 309.148438 C 265.871094 301.40625 256.84375 310.1875 256.84375 310.1875 C 255.773438 311.140625 251.417969 313.058594 245.292969 314.101562 C 243.753906 314.363281 242.050781 313.339844 241.480469 311.871094 C 239.019531 305.4375 245.4375 304.339844 248.957031 304.207031 C 250.40625 304.148438 251.785156 303.605469 252.871094 302.625 C 256.417969 299.441406 264.011719 292.597656 264.347656 292.011719 C 267.324219 286.71875 271.148438 279.535156 273.378906 274.332031 C 273.628906 273.746094 273.714844 272.953125 273.496094 269.65625 C 273.332031 267.414062 273.390625 267.414062 273.039062 264.65625 C 271.546875 252.945312 271.515625 226.382812 272.382812 213.984375 C 273.464844 198.476562 277.304688 194.472656 283.347656 189.945312 C 288.828125 185.839844 296.332031 185.808594 301.917969 189.796875 L 302.359375 190.207031 L 302.738281 190.574219 C 305.347656 193.492188 306.285156 198.621094 306.59375 202.242188 C 306.859375 205.246094 306.15625 211.507812 305.890625 213.410156 C 305.742188 214.4375 305.683594 214.261719 305.449219 214.261719 C 305.113281 214.261719 304.261719 214.261719 303.75 214.160156 C 302.972656 214.011719 302.460938 213.894531 301.949219 213.792969 C 301.316406 213.660156 299.878906 213.046875 299.878906 213.03125 C 299.191406 212.722656 297.945312 211.859375 297.210938 211.285156 C 297.09375 211.199219 296.304688 209.644531 295.789062 208.179688 C 294.003906 203.136719 286.496094 204.074219 285.28125 209.277344 C 283.390625 217.472656 282.6875 222.71875 282.554688 227.660156 C 282.230469 239.972656 283.535156 250.277344 284.078125 250.570312 C 284.621094 250.863281 285.03125 250.921875 285.308594 250.820312 C 285.71875 250.671875 291.1875 238.464844 292.289062 235.824219 C 292.289062 235.796875 292.976562 236.015625 293.121094 236.042969 C 293.179688 236.042969 297.578125 237.085938 298.78125 237.289062 C 299.984375 237.496094 300.9375 237.65625 301.140625 237.699219 C 301.257812 237.730469 303.25 238.066406 303.25 238.066406 L 290.691406 278.246094 C 290.691406 278.246094 290.617188 278.4375 290.792969 278.320312 L 297.8125 274.65625 C 298.515625 274.304688 301.464844 269.539062 301.535156 269.421875 C 301.535156 269.421875 301.699219 269.085938 301.710938 269.085938 C 305.640625 255.117188 320.359375 239.460938 336.21875 243.226562 C 336.234375 243.226562 336.25 243.226562 336.261719 243.242188 C 341.246094 247.933594 344.308594 282.496094 348.0625 282.835938 C 348.09375 282.835938 348.121094 282.820312 348.152344 282.789062 C 356.8125 270.683594 352.429688 257.035156 360.523438 244.371094 C 366.988281 234.242188 383.347656 234.417969 388.578125 245.132812 C 390.441406 248.929688 387.246094 254.867188 383.066406 253.53125 C 381.191406 252.929688 381.441406 244.0625 373.160156 246.394531 C 364.875 248.722656 365.460938 266.902344 367.441406 273.660156 C 367.75 274.714844 370.753906 283.054688 372.367188 284.082031 C 383.566406 291.160156 387.816406 268 389.75 262.035156 C 391.570312 256.40625 394.632812 246.746094 395.484375 239.664062 C 396.085938 234.652344 395.335938 229.332031 395.042969 223.847656 C 394.574219 220.550781 387.613281 221.605469 388.167969 226.238281 C 388.492188 228.832031 396.113281 230.621094 392.535156 234.492188 C 391.246094 235.882812 378.554688 235.648438 377.980469 228.628906 C 377.320312 220.695312 379.929688 214.554688 388.167969 213.96875 C 390.351562 213.808594 398.046875 213.601562 398.105469 213.25 C 399.074219 207.605469 399.117188 191.835938 399.824219 185.398438 C 400.703125 177.394531 400.1875 175.066406 407.152344 175.550781 C 408.765625 175.667969 409.996094 177.042969 409.996094 178.671875 L 409.996094 212.429688 C 409.996094 212.429688 410.023438 212.503906 410.070312 212.488281 L 418.160156 211.125 C 418.425781 211.097656 418.601562 211.109375 418.761719 211.359375 C 419.992188 213.222656 422.792969 219.613281 418.761719 222.71875 C 418.730469 222.75 418.703125 222.75 418.660156 222.71875 C 417.910156 222.339844 411.828125 223.027344 410.023438 222.75 C 409.996094 222.75 409.964844 222.765625 409.964844 222.808594 C 409.070312 244.429688 401.949219 274.246094 409.820312 286.894531 C 410.128906 287.394531 410.464844 287.21875 410.492188 287.171875 C 422.132812 273.394531 413.601562 241.117188 427.4375 228.613281 C 432.363281 224.171875 443.109375 225.636719 449.265625 227.148438 C 464.070312 230.78125 459.761719 246.921875 461.492188 258.632812 C 461.578125 259.21875 462.164062 259.570312 462.722656 259.410156 C 467.824219 257.945312 470.242188 257.253906 471.121094 251.332031 C 471.691406 247.390625 468.042969 250.367188 466.589844 248.269531 C 464.1875 244.796875 464.203125 234.503906 467.074219 228.816406 C 468 226.984375 469.976562 225.914062 472 226.195312 C 475.386719 226.664062 480.121094 226.75 482.496094 229.785156 C 482.714844 230.0625 482.921875 230.589844 482.980469 230.945312 C 484.460938 240.0625 475.636719 248.226562 489.152344 247.550781 C 494.515625 247.273438 503.179688 240.851562 506.449219 248.09375 C 509.71875 255.335938 497.359375 269.613281 500.511719 280.34375 C 501.257812 282.894531 506.183594 289.886719 509.042969 286.351562 C 511.050781 283.859375 513.308594 269.640625 513.351562 265.933594 C 513.410156 259.820312 507.695312 242.757812 517.25 240.574219 C 517.925781 240.414062 518.570312 239.988281 519.90625 240.382812 C 522.074219 241.027344 523.480469 243.125 523.480469 245.398438 L 523.480469 263.074219 C 523.480469 264.832031 524.683594 272.824219 526.484375 274.15625 C 529.683594 276.53125 535.148438 276.632812 538.097656 273.480469 C 538.492188 273.011719 538.828125 271.695312 538.800781 271.285156 L 538.039062 240.355469 C 538.433594 236.175781 543.652344 237.101562 545.308594 239.519531 C 549.058594 245.015625 550.144531 265.507812 549.660156 271.855469 C 549.089844 279.476562 546.453125 297.289062 544.339844 302.390625 C 541.421875 309.441406 541.21875 311.316406 538.214844 317.53125 C 537.613281 318.777344 533.054688 330.210938 533.054688 330.210938 L 530.488281 335.707031 C 527.058594 343.050781 523.773438 348.328125 518.175781 354.164062 C 517.632812 354.734375 515.417969 357.460938 514.597656 358.164062 C 513.21875 359.351562 512.457031 361.183594 496.246094 360.699219 C 495.074219 360.671875 482.410156 357.929688 480.972656 357.136719 C 464.816406 348.167969 456.886719 336.5 439.546875 332.660156 C 438.449219 332.410156 436.25 331.515625 435.179688 331.265625 C 432.1875 330.578125 430.621094 330.035156 427.613281 329.347656 C 426.53125 329.097656 424.625 328.597656 423.511719 328.335938 C 417.414062 326.867188 415.699219 326.855469 409.554688 325.402344 C 408.222656 325.082031 400.789062 323.71875 392.15625 325.785156 C 378.128906 329.125 365.785156 331.28125 352.722656 334.183594 C 351.625 334.433594 350.585938 334.886719 349.484375 335.136719 C 346.65625 335.78125 344.617188 336.308594 341.523438 337.804688 C 336.703125 340.148438 338.445312 358.3125 328.816406 354.234375 C 328.304688 354.015625 322.953125 347.316406 321.488281 345.96875 C 318.480469 343.226562 311.488281 342.421875 314.875 337.070312 C 318.894531 330.738281 331.382812 330.828125 338.871094 328.101562 C 340.074219 327.660156 341.113281 326.867188 342.273438 326.429688 C 387.683594 309.027344 430.957031 306.625 472.867188 336.425781 C 483.683594 344.121094 478.976562 344.445312 496.261719 348.871094 M 450.644531 235.984375 C 446.699219 232.71875 447.417969 244.3125 447.84375 246.878906 C 448.078125 248.269531 450.613281 256.332031 453.546875 255.027344 C 453.546875 255.027344 453.574219 255.011719 453.574219 254.996094 C 453.792969 250.527344 454.085938 238.84375 450.644531 235.984375 Z M 432.554688 279.109375 C 443.226562 292.464844 446.625 278.699219 450.410156 268.703125 L 450.410156 268.644531 C 442.742188 259.308594 437.1875 250.335938 437.554688 237.613281 C 437.554688 237.554688 437.480469 237.511719 437.4375 237.554688 C 427.101562 247.082031 423.847656 268.207031 432.570312 279.113281 L 432.554688 279.113281 Z M 331.308594 257.960938 C 331.308594 257.960938 331.308594 257.945312 331.292969 257.929688 C 323.804688 250.367188 294.207031 301.773438 315.683594 297.316406 C 329.652344 294.414062 334.722656 270.050781 331.308594 257.960938 Z M 281.820312 348.109375 C 283.992188 335.972656 280.238281 317.898438 281.804688 305.027344 C 281.804688 304.984375 281.761719 304.953125 281.71875 304.984375 C 272.792969 314.761719 258.5 337.480469 261.503906 350.734375 C 261.59375 351.097656 263.160156 354.410156 265.726562 356.917969 C 265.742188 356.933594 265.726562 356.960938 265.753906 356.976562 C 271.792969 361.167969 280.707031 354.324219 281.820312 348.125 Z M 281.820312 348.109375 " fill-opacity="1" fill-rule="nonzero"/></g><g clip-path="url(#0e7fa9a89c)"><path fill="#203a63" d="M 197.023438 76.648438 C 196.375 74.640625 195.996094 72.953125 196.597656 72.632812 C 199.511719 71.121094 199.953125 70.902344 201.273438 70.375 C 207.839844 67.765625 219.039062 61.695312 225.679688 57.914062 C 227.070312 57.121094 232.070312 54.425781 233.828125 53.3125 C 234.210938 53.0625 234.445312 52.652344 234.445312 52.199219 L 234.445312 16.796875 C 234.445312 14.863281 236.011719 13.28125 237.933594 13.28125 L 282.378906 13.28125 C 283.285156 13.28125 284.035156 13.984375 284.109375 14.890625 C 284.296875 17.664062 284.152344 27.734375 284.109375 30.914062 C 284.109375 31.351562 284.5625 31.632812 284.941406 31.410156 L 288.035156 29.742188 C 290.792969 28.097656 294.589844 25.855469 296.847656 24.699219 C 301.039062 22.558594 324.242188 10.800781 327.261719 9.277344 C 327.613281 9.101562 328.171875 8.953125 328.464844 8.824219 C 331 7.664062 333.566406 8.894531 335.675781 10.496094 L 361.417969 29.871094 C 374.066406 38.902344 396.390625 56.902344 397.710938 57.886719 C 397.753906 57.914062 400.628906 60.1875 400.671875 60.230469 L 411.300781 69.597656 L 419.363281 76.839844 C 419.84375 77.324219 419.859375 79.800781 419.433594 80.3125 C 417.617188 82.539062 413.601562 86.921875 412.515625 88.492188 C 411.667969 89.722656 409.144531 92.316406 408.308594 93.445312 C 408.015625 93.828125 403.136719 98.796875 402.738281 98.929688 L 399.03125 101.773438 C 398.09375 102.492188 396.613281 102.433594 395.730469 101.625 L 391.820312 98.050781 C 391.054688 97.332031 386.613281 93.183594 386.015625 92.539062 C 385.96875 92.492188 381.675781 88.476562 381.628906 88.449219 L 378.625 85.898438 L 375.179688 82.773438 C 375.003906 82.628906 371.546875 79.550781 371.179688 79.285156 C 371.148438 79.273438 371.121094 79.242188 371.105469 79.226562 C 370.5625 78.757812 364.390625 73.4375 364.347656 73.4375 L 341.9375 54.617188 C 341.9375 54.617188 337.949219 51.246094 337.917969 51.230469 L 334.035156 47.742188 C 329.550781 43.929688 329.417969 44.195312 323.511719 46.65625 C 323.480469 46.65625 319.683594 48.445312 319.65625 48.460938 C 314.773438 50.660156 311.972656 52.199219 310.726562 52.8125 C 293.710938 61.199219 299.835938 58.121094 285.472656 66.050781 C 277.671875 70.359375 257.371094 82.160156 249.515625 85.605469 C 238.007812 90.660156 225.3125 98.503906 214.554688 103.179688 C 214.097656 103.386719 212.355469 104.160156 210.945312 104.808594 C 209.980469 105.246094 208.835938 104.984375 208.160156 104.148438 C 206.945312 102.621094 205.757812 100.015625 205.65625 99.808594 C 205.539062 99.589844 203.265625 93.785156 203.265625 93.785156 C 203.265625 93.785156 198.957031 82.789062 198.738281 82.101562 " fill-opacity="1" fill-rule="nonzero"/></g><path fill="#203a63" d="M 324.492188 356.011719 C 324.285156 356.230469 322.511719 357.609375 321.046875 359.558594 C 319.992188 360.964844 317.851562 365.273438 314.363281 364.363281 C 312.808594 359.25 319.304688 348.253906 325.09375 352.417969 C 326.117188 353.167969 325.195312 355.277344 324.507812 356.011719 Z M 324.492188 356.011719 " fill-opacity="1" fill-rule="nonzero"/><path fill="#203a63" d="M 317.882812 349.546875 L 310.890625 357.375 C 309.644531 358.765625 307.386719 357.652344 307.679688 355.804688 C 308.527344 350.441406 310.875 346.613281 316.460938 346.4375 C 318.070312 346.394531 318.949219 348.34375 317.867188 349.558594 L 317.882812 349.558594 Z M 317.882812 349.546875 " fill-opacity="1" fill-rule="nonzero"/></svg>