<?xml version="1.0" encoding="UTF-8"?>
<svg id="Capa_1" xmlns="http://www.w3.org/2000/svg" version="1.1" viewBox="0 0 750 750">
  <!-- Generator: Adobe Illustrator 29.7.1, SVG Export Plug-In . SVG Version: 2.1.1 Build 8)  -->
  <defs>
    <style>
      .st0 {
        fill: #203a63;
      }

      .st1 {
        fill: #faf8f4;
      }

      .st2 {
        fill: #fb461f;
      }
    </style>
  </defs>
  <path class="st2" d="M750,1.99v746.02c0,1.1-.89,1.99-1.99,1.99H1.99C.89,750,0,749.11,0,748.01V1.99C0,.89.89,0,1.99,0h746.02C749.11,0,750,.89,750,1.99Z"/>
  <path class="st1" d="M305.96,389.38c1.22,8.65-4.92-4.15-6.86-4.76-.1,4.69.53,9.48-1,13.99h-17.38c-.69,0-1.96-3.72-3.05-3.97-.65-.15-6.12,3.32-7.93,3.91-14.17,4.62-31.35-.43-37.19-14.94-10.72,15.63-29.91,20.35-47.47,14.31-3.66-1.26-8.71-6.24-11.58-6.35l-2.48,4.17c-.95,1.6-2.51,2.76-4.32,3.17-10.39,2.3-20.86,1.16-26.04-5.25-6.85-8.48-4.79-32.32-4.39-36.34.03-.29-.22-.53-.5-.49-1.36.19-5.25-.2-6.64-.34-.31-.03-.55-.27-.57-.58-.2-2.41.06-11.2.06-13.3,0-1.46,7.62-.56,7.62-.99v-16.17c0-2.13,20.4-2.15,20.45-.45.06,2.19.04,13.53-.13,16.58.29.25,11.74-.06,13.37.47.19,1.42.02,11.39.25,11.45,14.95-18.89,49.05-17.73,61.88,3.12,6.75-13.16,19.09-17.43,33.41-15.52,4.58.61,8.84,2.13,12.76,3.52l.38-31.85c.19-1.02,1.77-1.15,2.1-1.15h16.88c.82,0,1.49.68,1.49,1.5v42.5c13.26-18.51,40.57-20.22,57.81-6.01,2.13,1.75,2.7,5.81,6.73,5.01v-42c.01-1.23,1.12-1,1.45-1h18.71c.38,0,.7.32.7.7v33.3c4.64-.12,8.15-4,12.65-4.76,13.14-2.23,24.17,1.47,28.55,14.76,13.72-18.72,42.62-20.64,59.11-4.52,1.99,1.94,3.14,6.14,6.4,5.56.53-.09,3.63-6.88,5.99-9.03,6.91-6.3,18.56-8.19,27.56-6.76,3.5.56,9.75,4.83,11.21,4.8,2.4-.06,1.48-2.83,3.89-3.12,2.19-.26,18.41-1.09,18.41,1.58v24.5c4.14-.13,5.59-3.86,9.96-5.47,10.68-3.95,19.08-1.25,29.76.47-1.06-10.09-14.45-9.92-22.25-8.91-3.55.46-10.66,5.25-11.5.41-2.05-11.82,2.79-13.45,13.41-14.49,12.33-1.2,31-.21,37.66,12.06,4.71,8.68,1.29,15.71,2.6,24.38.2,1.32,1.87,5.4,3.92,4.55v-37.5c0-.82.67-1.5,1.49-1.5h18.37c.21,0-.4,3.32,1.59,3.96s15.43-7.94,20.32-4.52c1.65,1.16,1.31,13.21-.28,14.35-2.21,1.6-20.64,2.28-20.64,9.71v31c0,.83-.67,1.5-1.49,1.5h-24.82c-1.66,0-8.57-2.52-10.54-3.42s-1.71-2.79-3.27-2.62c-3.22.35-7.14,4.24-10.54,5.51-8.79,3.28-17.29,2.81-25.86-.92l-7.87-7.56c-.23,17.12-4.34,29.63-22.06,34.29-12.22,3.22-23.48,1.4-35.54-1.3v-14c14.52,1.21,37.29,8.67,36.73-14-16.77,10.65-37.38,6.77-47.17-10.99l-7.47,8.44c-8.15,6.64-23.65,10.91-33.72,7.56-2.57-.85-6.81-2.2-8.94-3-6.38-2.4-9.65-5.9-13.89-11v12c-4.21-1.03-11.55-2.03-14.9,1-6.63,1.69-5.37-3.44-5.96-4-.04-3.35.09-6.51,0-8-.36-5.68,1.29-24.49-1.29-27.71-4.09-5.1-17.15-1.82-19.12,4.66-1.98,6.53.54,17.93-.44,25.05.25,2.81.15,4.24.33,7.44.08,1.48-1.07,2.74-2.55,2.76-5.56.08-16.52.96-17.71-.63-.77-1.04-.43-14.62-3.44-12.1-.64,1.23-1.18,2.63-2.05,3.55-7.36,7.71-20.59,11.75-31.19,11-.78-.06-4.78-.78-5.96-1-3.17-.6-6.79-2.08-9.93-3,0-7.44-.84-15.78,5.46-20.98,4.88,8.78,8.62,10.2,18.37,6.98,7.74-2.56,8.99-8.65,7.88-16.44-1.49-10.43-17.49-13.07-23.78-5.09-1.9,2.41-1.37,4.46-1.97,5.52-5.23,9.29-10.97,8.15-11.99,22.77ZM157.09,356.61v23.5c0,3.7,9.51,3.6,10.51,2.15.34-.48-1.38-5.43-1.62-8.11-.26-2.89-.13-7.03.12-9.96.16-1.86,2.17-6.71,2.19-7.69.02-.68-8.91.43-11.21.1ZM210.38,380.27c1.84-1.96,3.23-6.52,3.35-9.21.92-20.67-30.61-19.05-26.6,2.82,1.86,10.14,16.69,13.39,23.25,6.39ZM275.91,360.96c-6.77-7.07-20.04-6.15-23.96,3.68-6.31,15.81,11.91,25.89,23.25,15.41,4.22-3.89,4.58-15.06.72-19.09ZM466.59,381.3c7.95-7.31,4.71-23.48-7.13-24.72-19.36-2.02-20.33,25.13-5.01,27.05,3.44.43,9.49.1,12.14-2.33ZM534.08,380.27c3.33-3.33,3.88-8.67,3.33-13.19-1.75-14.42-29.38-15.54-27.85,5,.91,12.18,16.62,16.07,24.52,8.19ZM578.43,376.88c-4.85,15.19,17.64,11.53,19.39,5.01,2.52-9.39-17.84-9.85-19.39-5.01Z"/>
  <path class="st0" d="M458.8,476.51c11.27.29,13.7-5.69,16.92-13.71,1.06-2.64,5.3-12.06,5.3-12.06l2.19-4.81,1.19-3.1,1.49-3.99c.1-.57,1.12-2.61-.58-4.35-.78-.79-.92-.41-3.8-.82-.7-.1-2.33-.14-3-.66-3.07-2.37-2.44-.49-3.63,2.5-.48,1.21-2.28,5.87-4.25,6.45-1.32.39-1.78.62-5.47-.07-10.5-1.94-14.39-16.63-9.66-25.35.02-.03,0-.06-.04-.06-4.43.51-6.91-1.98-9.3-2.06-.47-.01-.13,4.06-3.4,5.9-5.55,3.13-8.1.35-9.74,5.52-.52,1.65-2.68,6.76-3.62,8.31-2.85,4.74-9.75,5.31-14.84,4.27-.84-.17-2.94-3.68-3.6-4.22-1.83-1.48-.32-.4-3.55,3.7-.39.5-3.89,3.77-4.11,3.92-1.35.92-4.78,1.14-6.16,0-.46-.39-3.45-3.55-3.71-4.06-1.93-3.71-1.7-7.66-3.31-7.39-.48.08-.73.4-.75.42-1.13,1.29-1.07,2.25-3.65,5.34-.27.32-1.53,1.24-2.19,1.54-1.08.5-1.09.47-2.89.87-6.35,1.41-11.78.42-14.44-5.97-.02-.05-.08-.06-.12-.02-3.29,4.14-3.57,6.94-9.91,6.42-3.97-.32-4.55-2.91-4.73-3.49-.9-2.8-2.43,1.68-3.6,3.68-.48.81-.44.83-.93,1.71-.51.92-1.56,1.91-1.91,2.27s-.86,1.01-1.51,1.66c0,0-3.23,2.45-5.81,3.63-1.66.76-8.79-.22-10.17-1.21-1.27-.91-3.45-3.53-5.7-4.54-.62-.28-1.32.19-1.34.87-.26,8.58-.26,7.53,0,16.22.06,1.88-.08,9.69-.25,10.51-.31,1.47-.56,4.26-.89,5.73-.15.68-.83,2.68-1.01,3-1.95,3.31-3.31,4.81-6.05,7.14-.68.57-.81.73-2.09,1.47-.32.18-1.6.66-2.27.82-1.02.25-7.64.19-8.04-.05-1.71-1.01-4.71-3.63-5.07-4.11-.23-.3-1.88-3.69-2.06-4.51-1.94-8.96,1.89-18.17,5.64-26.06.54-1.14,1.9-3.53,2.08-4.32,1.2-5.28-4.96.71-4.96.71-.73.65-3.7,1.96-7.88,2.67-1.05.18-2.21-.52-2.6-1.52-1.68-4.39,2.7-5.14,5.1-5.23.99-.04,1.93-.41,2.67-1.08,2.42-2.17,7.6-6.84,7.83-7.24,2.03-3.61,4.64-8.51,6.16-12.06.17-.4.23-.94.08-3.19-.11-1.53-.07-1.53-.31-3.41-1.02-7.99-1.04-26.11-.45-34.57.74-10.58,3.36-13.31,7.48-16.4,3.74-2.8,8.86-2.82,12.67-.1l.3.28s.26.25.26.25c1.78,1.99,2.42,5.49,2.63,7.96.18,2.05-.3,6.32-.48,7.62-.1.7-.14.58-.3.58-.23,0-.81,0-1.16-.07-.53-.1-.88-.18-1.23-.25-.43-.09-1.41-.51-1.41-.52-.47-.21-1.32-.8-1.82-1.19-.08-.06-.62-1.12-.97-2.12-1.22-3.44-6.34-2.8-7.17.75-1.29,5.59-1.77,9.17-1.86,12.54-.22,8.4.67,15.43,1.04,15.63s.65.24.84.17c.28-.1,4.01-8.43,4.76-10.23,0-.02.47.13.57.15.04,0,3.04.71,3.86.85s1.47.25,1.61.28c.08.02,1.44.25,1.44.25l-8.57,27.41s-.05.13.07.05l4.79-2.5c.48-.24,2.49-3.49,2.54-3.57,0,0,.11-.23.12-.23,2.68-9.53,12.72-20.21,23.54-17.64.01,0,.02,0,.03.01,3.4,3.2,5.49,26.78,8.05,27.01.02,0,.04-.01.06-.03,5.91-8.26,2.92-17.57,8.44-26.21,4.41-6.91,15.57-6.79,19.14.52,1.27,2.59-.91,6.64-3.76,5.73-1.28-.41-1.11-6.46-6.76-4.87s-5.25,13.99-3.9,18.6c.21.72,2.26,6.41,3.36,7.11,7.64,4.83,10.54-10.97,11.86-15.04,1.24-3.84,3.33-10.43,3.91-15.26.41-3.42-.1-7.05-.3-10.79-.32-2.25-5.07-1.53-4.69,1.63.22,1.77,5.42,2.99,2.98,5.63-.88.95-9.54.79-9.93-4-.45-5.41,1.33-9.6,6.95-10,1.49-.11,6.74-.25,6.78-.49.66-3.85.69-14.61,1.17-19,.6-5.46.25-7.05,5-6.72,1.1.08,1.94,1.02,1.94,2.13v23.03s.02.05.05.04l5.52-.93c.18-.02.3-.01.41.16.84,1.27,2.75,5.63,0,7.75-.02.02-.04.02-.07,0-.51-.26-4.66.21-5.89.02-.02,0-.04.01-.04.04-.61,14.75-5.47,35.09-.1,43.72.21.34.44.22.46.19,7.94-9.4,2.12-31.42,11.56-39.95,3.36-3.03,10.69-2.03,14.89-1,10.1,2.48,7.16,13.49,8.34,21.48.06.4.46.64.84.53,3.48-1,5.13-1.47,5.73-5.51.39-2.69-2.1-.66-3.09-2.09-1.64-2.37-1.63-9.39.33-13.27.63-1.25,1.98-1.98,3.36-1.79,2.31.32,5.54.38,7.16,2.45.15.19.29.55.33.79,1.01,6.22-5.01,11.79,4.21,11.33,3.66-.19,9.57-4.57,11.8.37s-6.2,14.68-4.05,22c.51,1.74,3.87,6.51,5.82,4.1,1.37-1.7,2.91-11.4,2.94-13.93.04-4.17-3.86-15.81,2.66-17.3.46-.11.9-.4,1.81-.13,1.48.44,2.44,1.87,2.44,3.42v12.06c0,1.2.82,6.65,2.05,7.56,2.18,1.62,5.91,1.69,7.92-.46.27-.32.5-1.22.48-1.5l-.52-21.1c.27-2.85,3.83-2.22,4.96-.57,2.56,3.75,3.3,17.73,2.97,22.06-.39,5.2-2.19,17.35-3.63,20.83-1.99,4.81-2.13,6.09-4.18,10.33-.41.85-3.52,8.65-3.52,8.65l-1.75,3.75c-2.34,5.01-4.58,8.61-8.4,12.59-.37.39-1.88,2.25-2.44,2.73-.94.81-1.46,2.06-12.52,1.73-.8-.02-9.44-1.89-10.42-2.43-11.02-6.12-16.43-14.08-28.26-16.7-.75-.17-2.25-.78-2.98-.95-2.04-.47-3.11-.84-5.16-1.31-.74-.17-2.04-.51-2.8-.69-4.16-1-5.33-1.01-9.52-2-.91-.22-5.98-1.15-11.87.26-9.57,2.28-17.99,3.75-26.9,5.73-.75.17-1.46.48-2.21.65-1.93.44-3.32.8-5.43,1.82-3.29,1.6-2.1,13.99-8.67,11.21-.35-.15-4-4.72-5-5.64-2.05-1.87-6.82-2.42-4.51-6.07,2.74-4.32,11.26-4.26,16.37-6.12.82-.3,1.53-.84,2.32-1.14,30.98-11.87,60.5-13.51,89.09,6.82,7.38,5.25,4.17,5.47,15.96,8.49M427.71,399.48c-2.69-2.23-2.2,5.68-1.91,7.43.16.95,1.89,6.45,3.89,5.56,0,0,.02-.01.02-.02.15-3.05.35-11.02-2-12.97ZM415.37,428.9c7.28,9.11,9.6-.28,12.18-7.1,0-.01,0-.03,0-.04-5.23-6.37-9.02-12.49-8.77-21.17,0-.04-.05-.07-.08-.04-7.05,6.5-9.27,20.91-3.32,28.35ZM346.3,414.47s0-.01-.01-.02c-5.11-5.16-25.3,29.91-10.65,26.87,9.53-1.98,12.99-18.6,10.66-26.85ZM312.54,475.97c1.48-8.28-1.08-20.61-.01-29.39,0-.03-.03-.05-.06-.03-6.09,6.67-15.84,22.17-13.79,31.21.06.25,1.13,2.51,2.88,4.22.01.01,0,.03.02.04,4.12,2.86,10.2-1.81,10.96-6.04Z"/>
  <path class="st0" d="M254.69,290.78c-.44-1.37-.7-2.52-.29-2.74,1.99-1.03,2.29-1.18,3.19-1.54,4.48-1.78,12.12-5.92,16.65-8.5.95-.54,4.36-2.38,5.56-3.14.26-.17.42-.45.42-.76v-24.15c0-1.32,1.07-2.4,2.38-2.4h30.32c.62,0,1.13.48,1.18,1.1.13,1.89.03,8.76,0,10.93,0,.3.31.49.57.34l2.11-1.14c1.88-1.12,4.47-2.65,6.01-3.44,2.86-1.46,18.69-9.48,20.75-10.52.24-.12.62-.22.82-.31,1.73-.79,3.48.05,4.92,1.14l17.56,13.22c8.63,6.16,23.86,18.44,24.76,19.11.03.02,1.99,1.57,2.02,1.6l7.25,6.39,5.5,4.94c.33.33.34,2.02.05,2.37-1.24,1.52-3.98,4.51-4.72,5.58-.58.84-2.3,2.61-2.87,3.38-.2.26-3.53,3.65-3.8,3.74l-2.53,1.94c-.64.49-1.65.45-2.25-.1l-2.67-2.44c-.52-.49-3.55-3.32-3.96-3.76-.03-.03-2.96-2.77-2.99-2.79l-2.05-1.74-2.35-2.13c-.12-.1-2.48-2.2-2.73-2.38-.02-.01-.04-.03-.05-.04-.37-.32-4.58-3.95-4.61-3.95l-15.29-12.84s-2.72-2.3-2.74-2.31l-2.65-2.38c-3.06-2.6-3.15-2.42-7.18-.74-.02,0-2.61,1.22-2.63,1.23-3.33,1.5-5.24,2.55-6.09,2.97-11.61,5.72-7.43,3.62-17.23,9.03-5.32,2.94-19.17,10.99-24.53,13.34-7.85,3.45-16.51,8.8-23.85,11.99-.31.14-1.5.67-2.46,1.11-.66.3-1.44.12-1.9-.45-.83-1.04-1.64-2.82-1.71-2.96-.08-.15-1.63-4.11-1.63-4.11,0,0-2.94-7.5-3.09-7.97"/>
  <path class="st0" d="M341.65,481.36c-.14.15-1.35,1.09-2.35,2.42-.72.96-2.18,3.9-4.56,3.28-1.06-3.49,3.37-10.99,7.32-8.15.7.51.07,1.95-.4,2.45Z"/>
  <path class="st0" d="M337.14,476.95l-4.77,5.34c-.85.95-2.39.19-2.19-1.07.58-3.66,2.18-6.27,5.99-6.39,1.1-.03,1.7,1.3.96,2.13Z"/>
</svg>